<?xml version="1.0" standalone="no"?>
<!DOCTYPE svg PUBLIC "-//W3C//DTD SVG 20010904//EN"
 "http://www.w3.org/TR/2001/REC-SVG-20010904/DTD/svg10.dtd">
<svg version="1.0" xmlns="http://www.w3.org/2000/svg"
 width="64.000000pt" height="64.000000pt" viewBox="0 0 64.000000 64.000000"
 preserveAspectRatio="xMidYMid meet">
<metadata>
Created by potrace 1.14, written by Peter Selinger 2001-2017
</metadata>
<g transform="translate(0.000000,64.000000) scale(0.100000,-0.100000)"
fill="#000000" stroke="none">
<path d="M4 497 c-2 -7 -3 -91 -2 -187 l3 -175 104 -3 c117 -3 121 -1 157 70
21 41 29 48 54 48 25 0 33 -6 47 -37 35 -77 46 -83 149 -83 51 0 99 3 108 6
14 5 16 30 16 174 0 93 -3 175 -6 184 -5 14 -43 16 -315 16 -243 0 -311 -3
-315 -13z m194 -113 c38 -27 25 -96 -22 -108 -33 -8 -54 1 -70 33 -31 60 35
115 92 75z m319 0 c48 -31 21 -107 -37 -107 -37 0 -60 23 -60 62 0 50 52 75
97 45z"/>
</g>
</svg>
